<svg xmlns="http://www.w3.org/2000/svg" height="24" viewBox="0 -960 960 960" width="24"><path d="M480-588.461 452.461-616l83.769-84H340v-40h196.23l-83.999-84L480-851.539 611.539-720 480-588.461ZM292.308-115.384q-25.308 0-42.654-17.347-17.347-17.346-17.347-42.654 0-25.307 17.347-42.653 17.346-17.347 42.654-17.347 25.307 0 42.654 17.347 17.346 17.346 17.346 42.653 0 25.308-17.346 42.654-17.347 17.347-42.654 17.347Zm375.384 0q-25.307 0-42.654-17.347-17.346-17.346-17.346-42.654 0-25.307 17.346-42.653 17.347-17.347 42.654-17.347 25.308 0 42.654 17.347 17.347 17.346 17.347 42.653 0 25.308-17.347 42.654-17.346 17.347-42.654 17.347ZM80-820v-40h97.923l163.846 344.615h265.385q6.923 0 12.308-3.461 5.384-3.462 9.23-9.615L768.539-780h45.615L662.769-506.615q-8.692 14.615-22.577 22.923-13.884 8.308-30.5 8.308H324l-48.615 89.23q-6.154 9.231-.385 20t17.308 10.769h435.385v40.001H292.308q-35 0-52.347-29.385-17.346-29.385-.73-59.385l60.153-107.231L152.307-820H80Z"/></svg>