<svg version="1.1" id="Layer_1" xmlns="http://www.w3.org/2000/svg" xmlns:xlink="http://www.w3.org/1999/xlink" x="0px" y="0px"
	 width="100%" viewBox="0 0 734 518" enable-background="new 0 0 734 518" xml:space="preserve">
<path fill="#FF0000" opacity="1.000000" stroke="none" 
	d="
M735.000000,223.000000 
	C735.000000,247.354233 735.000000,271.708466 734.598633,296.711334 
	C733.464905,313.857483 732.809509,330.358917 731.971558,346.851074 
	C731.454346,357.031921 731.070679,367.246796 729.887268,377.359833 
	C728.300659,390.919952 725.962891,404.391235 724.012695,417.910034 
	C721.353210,436.345673 716.341187,453.869690 705.005615,469.103973 
	C691.770691,486.890930 674.546692,499.276947 652.944458,503.727539 
	C633.701965,507.691956 614.025635,509.747650 594.456299,511.865845 
	C579.099915,513.528015 563.622437,514.147644 548.184448,514.958862 
	C532.023376,515.808044 515.850891,516.603882 499.673401,516.938904 
	C472.772278,517.496033 445.863220,517.667297 418.957458,517.998230 
	C417.458710,518.016663 415.952393,517.927917 414.464722,518.059753 
	C413.952728,518.105103 413.486908,518.671570 413.000000,519.000000 
	C383.312439,519.000000 353.624878,519.000000 323.288666,518.598633 
	C302.735596,517.798218 282.830261,517.437378 262.927063,516.984863 
	C252.008423,516.736572 241.092529,516.356995 230.176834,515.993164 
	C221.257568,515.695984 212.337494,515.398132 203.423065,514.986206 
	C190.247864,514.377563 177.068329,513.807556 163.907455,512.960022 
	C151.301010,512.148132 138.688644,511.261841 126.129280,509.932159 
	C113.505562,508.595612 100.874397,507.075836 88.369728,504.921204 
	C62.623997,500.485046 42.716167,486.566406 28.159597,465.261292 
	C17.536905,449.713867 13.704147,431.582428 11.045938,413.269165 
	C9.453594,402.299011 8.132133,391.281586 7.014641,380.252411 
	C5.511872,365.420807 4.034686,350.575684 3.089934,335.701843 
	C2.313682,323.480774 2.344719,311.208923 1.955036,298.961578 
	C1.933930,298.298248 1.331712,297.653442 1.000000,297.000000 
	C1.000000,272.645782 1.000000,248.291550 1.401329,223.288666 
	C2.535083,206.142517 3.190413,189.641083 4.028340,173.148956 
	C4.545606,162.968109 4.929357,152.753235 6.112689,142.640182 
	C7.699366,129.080032 10.037070,115.608742 11.987249,102.089920 
	C14.646713,83.654274 19.658760,66.130211 30.994316,50.895973 
	C44.229271,33.109070 61.453220,20.722923 83.055504,16.272362 
	C102.298027,12.307963 121.974388,10.252292 141.543701,8.134132 
	C156.900116,6.471972 172.377655,5.852397 187.815643,5.041180 
	C203.976685,4.191969 220.149170,3.396189 236.326660,3.061123 
	C263.227722,2.503951 290.136780,2.332686 317.042511,2.001689 
	C318.541260,1.983251 320.047607,2.072116 321.535278,1.940306 
	C322.047272,1.894943 322.513092,1.328434 323.000000,1.000000 
	C352.687561,1.000000 382.375122,1.000000 412.711365,1.401335 
	C433.264526,2.201757 453.169891,2.562587 473.073181,3.015122 
	C483.991791,3.263375 494.907684,3.642991 505.823364,4.006768 
	C514.742676,4.304013 523.662659,4.601791 532.577148,5.013692 
	C545.752319,5.622465 558.931824,6.192369 572.092651,7.039916 
	C584.699097,7.851762 597.311523,8.738162 609.870850,10.067896 
	C622.494568,11.404441 635.125671,12.924201 647.630371,15.078855 
	C673.376038,19.515036 693.283752,33.433601 707.840393,54.738659 
	C718.463135,70.286133 722.295715,88.417656 724.954102,106.730919 
	C726.546448,117.701057 727.867859,128.718475 728.985413,139.747635 
	C730.488220,154.579254 731.965271,169.424408 732.909973,184.298248 
	C733.686279,196.519287 733.655273,208.791122 734.044922,221.038452 
	C734.066040,221.701767 734.668274,222.346588 735.000000,223.000000 
M381.463013,201.061401 
	C352.181519,184.420303 322.900055,167.779205 293.386536,151.006241 
	C293.386536,223.862579 293.386536,296.259766 293.386536,369.018494 
	C357.311127,332.651550 420.786591,296.540070 484.997559,260.010193 
	C450.166809,240.181763 416.131866,220.806351 381.463013,201.061401 
z"/>
<path fill="#FFFFFF" opacity="1.000000" stroke="none" 
	d="
M322.531342,1.000000 
	C322.513092,1.328434 322.047272,1.894943 321.535278,1.940306 
	C320.047607,2.072116 318.541260,1.983251 317.042511,2.001689 
	C290.136780,2.332686 263.227722,2.503951 236.326660,3.061123 
	C220.149170,3.396189 203.976685,4.191969 187.815643,5.041180 
	C172.377655,5.852397 156.900116,6.471972 141.543701,8.134132 
	C121.974388,10.252292 102.298027,12.307963 83.055504,16.272362 
	C61.453220,20.722923 44.229271,33.109070 30.994316,50.895973 
	C19.658760,66.130211 14.646713,83.654274 11.987249,102.089920 
	C10.037070,115.608742 7.699366,129.080032 6.112689,142.640182 
	C4.929357,152.753235 4.545606,162.968109 4.028340,173.148956 
	C3.190413,189.641083 2.535083,206.142517 1.401329,222.820007 
	C1.000000,149.059540 1.000000,75.119072 1.000000,1.000000 
	C108.020828,1.000000 215.041748,1.000000 322.531342,1.000000 
z"/>
<path fill="#FFFFFF" opacity="1.000000" stroke="none" 
	d="
M413.468658,519.000000 
	C413.486908,518.671570 413.952728,518.105103 414.464722,518.059753 
	C415.952393,517.927917 417.458710,518.016663 418.957458,517.998230 
	C445.863220,517.667297 472.772278,517.496033 499.673401,516.938904 
	C515.850891,516.603882 532.023376,515.808044 548.184448,514.958862 
	C563.622437,514.147644 579.099915,513.528015 594.456299,511.865845 
	C614.025635,509.747650 633.701965,507.691956 652.944458,503.727539 
	C674.546692,499.276947 691.770691,486.890930 705.005615,469.103973 
	C716.341187,453.869690 721.353210,436.345673 724.012695,417.910034 
	C725.962891,404.391235 728.300659,390.919952 729.887268,377.359833 
	C731.070679,367.246796 731.454346,357.031921 731.971558,346.851074 
	C732.809509,330.358917 733.464905,313.857483 734.598633,297.179993 
	C735.000000,370.940460 735.000000,444.880951 735.000000,519.000000 
	C627.979187,519.000000 520.958252,519.000000 413.468658,519.000000 
z"/>
<path fill="#FFFFFF" opacity="1.000000" stroke="none" 
	d="
M735.000000,222.531342 
	C734.668274,222.346588 734.066040,221.701767 734.044922,221.038452 
	C733.655273,208.791122 733.686279,196.519287 732.909973,184.298248 
	C731.965271,169.424408 730.488220,154.579254 728.985413,139.747635 
	C727.867859,128.718475 726.546448,117.701057 724.954102,106.730919 
	C722.295715,88.417656 718.463135,70.286133 707.840393,54.738659 
	C693.283752,33.433601 673.376038,19.515036 647.630371,15.078855 
	C635.125671,12.924201 622.494568,11.404441 609.870850,10.067896 
	C597.311523,8.738162 584.699097,7.851762 572.092651,7.039916 
	C558.931824,6.192369 545.752319,5.622465 532.577148,5.013692 
	C523.662659,4.601791 514.742676,4.304013 505.823364,4.006768 
	C494.907684,3.642991 483.991791,3.263375 473.073181,3.015122 
	C453.169891,2.562587 433.264526,2.201757 413.179993,1.401335 
	C520.246948,1.000000 627.493958,1.000000 735.000000,1.000000 
	C735.000000,74.687355 735.000000,148.375015 735.000000,222.531342 
z"/>
<path fill="#FFFFFF" opacity="1.000000" stroke="none" 
	d="
M1.000000,297.468658 
	C1.331712,297.653442 1.933930,298.298248 1.955036,298.961578 
	C2.344719,311.208923 2.313682,323.480774 3.089934,335.701843 
	C4.034686,350.575684 5.511872,365.420807 7.014641,380.252411 
	C8.132133,391.281586 9.453594,402.299011 11.045938,413.269165 
	C13.704147,431.582428 17.536905,449.713867 28.159597,465.261292 
	C42.716167,486.566406 62.623997,500.485046 88.369728,504.921204 
	C100.874397,507.075836 113.505562,508.595612 126.129280,509.932159 
	C138.688644,511.261841 151.301010,512.148132 163.907455,512.960022 
	C177.068329,513.807556 190.247864,514.377563 203.423065,514.986206 
	C212.337494,515.398132 221.257568,515.695984 230.176834,515.993164 
	C241.092529,516.356995 252.008423,516.736572 262.927063,516.984863 
	C282.830261,517.437378 302.735596,517.798218 322.820007,518.598633 
	C215.753021,519.000000 108.506042,519.000000 1.000000,519.000000 
	C1.000000,445.312653 1.000000,371.624969 1.000000,297.468658 
z"/>
<path fill="#FFFEFE" opacity="1.000000" stroke="none" 
	d="
M381.779968,201.246170 
	C416.131866,220.806351 450.166809,240.181763 484.997559,260.010193 
	C420.786591,296.540070 357.311127,332.651550 293.386536,369.018494 
	C293.386536,296.259766 293.386536,223.862579 293.386536,151.006241 
	C322.900055,167.779205 352.181519,184.420303 381.779968,201.246170 
z"/>
</svg>