<svg version="1.1" id="Layer_1" xmlns="http://www.w3.org/2000/svg" xmlns:xlink="http://www.w3.org/1999/xlink" x="0px" y="0px"
	 width="100%" viewBox="0 0 734 518" enable-background="new 0 0 734 518" xml:space="preserve">
<path fill="#282828" opacity="1.000000" stroke="none" 
	d="
M735.000000,223.000000 
	C735.000000,247.354233 735.000000,271.708466 734.597290,296.709076 
	C733.463074,313.856567 732.808716,330.361603 731.971497,346.857361 
	C731.454712,357.039703 731.071228,367.256165 729.887695,377.370667 
	C728.301086,390.929871 725.965942,404.400543 724.011536,417.917816 
	C721.347412,436.343109 716.340393,453.856476 705.011597,469.090546 
	C691.782532,486.879822 674.559387,499.255646 652.978333,503.723389 
	C633.741699,507.705811 614.062378,509.747772 594.493896,511.865814 
	C579.135132,513.528198 563.655334,514.147766 548.214966,514.958862 
	C532.050476,515.808105 515.874451,516.574890 499.693604,516.942993 
	C475.450836,517.494568 451.199585,517.672852 426.951691,517.993286 
	C423.287018,518.041748 419.618958,517.930542 415.957275,518.045959 
	C414.962463,518.077271 413.985260,518.666687 413.000000,519.000000 
	C383.312439,519.000000 353.624878,519.000000 323.290924,518.597290 
	C302.734619,517.796448 282.823792,517.436646 262.915100,516.984741 
	C251.993851,516.736816 241.073730,516.396667 230.157349,515.985474 
	C213.981125,515.376282 197.800766,514.815857 181.636948,513.956482 
	C166.696381,513.162231 151.740768,512.356445 136.854889,510.907410 
	C120.638374,509.328918 104.404190,507.548065 88.339561,504.880707 
	C62.582577,500.603973 42.693848,486.554718 28.150797,465.247681 
	C17.542305,449.705170 13.698824,431.584717 11.045606,413.278137 
	C9.455636,402.307709 8.134109,391.290466 7.016624,380.261383 
	C5.513731,365.428406 4.035049,350.582092 3.090036,335.706909 
	C2.313447,323.482849 2.344954,311.207947 1.955404,298.957550 
	C1.934353,298.295563 1.331842,297.652100 1.000001,297.000000 
	C1.000000,272.645782 1.000000,248.291550 1.402681,223.290909 
	C2.536887,206.143524 3.191156,189.638641 4.028402,173.143036 
	C4.545216,162.960663 4.928844,152.744217 6.112383,142.629684 
	C7.698997,129.070465 10.034032,115.599739 11.988465,102.082451 
	C14.652537,83.657158 19.659487,66.143822 30.988297,50.909748 
	C44.217323,33.120411 61.440361,20.744345 83.021423,16.276550 
	C102.258041,12.294111 121.937431,10.252210 141.505875,8.134183 
	C156.864639,6.471802 172.344559,5.852323 187.784912,5.041131 
	C203.949402,4.191896 220.125443,3.426919 236.306305,3.056553 
	C260.382446,2.505471 284.467163,2.326395 308.548462,2.007047 
	C312.379700,1.956241 316.214203,2.066844 320.042786,1.953985 
	C321.037018,1.924675 322.014709,1.333241 323.000000,1.000000 
	C352.687561,1.000000 382.375122,1.000000 412.709106,1.402678 
	C433.265503,2.203549 453.176422,2.563308 473.085205,3.015192 
	C484.006439,3.263079 494.926544,3.603244 505.842926,4.014418 
	C522.019104,4.623707 538.199463,5.184054 554.363220,6.043378 
	C569.303772,6.837671 584.259338,7.643562 599.145264,9.092578 
	C615.361755,10.671119 631.595947,12.451978 647.660583,15.119389 
	C673.417603,19.396152 693.306274,33.445320 707.849243,54.752441 
	C718.457703,70.294952 722.301147,88.415428 724.954468,106.721931 
	C726.544495,117.692360 727.865845,128.709610 728.983337,139.738693 
	C730.486206,154.571640 731.964905,169.417969 732.909912,184.293121 
	C733.686523,196.517181 733.655090,208.792084 734.044617,221.042465 
	C734.065674,221.704437 734.668152,222.347916 735.000000,223.000000 
M381.463318,201.061005 
	C352.180420,184.419739 322.897522,167.778473 293.216705,150.911087 
	C293.216705,223.803757 293.216705,296.151459 293.216705,369.110535 
	C357.122437,332.756500 420.695618,296.591644 484.999207,260.011261 
	C450.169403,240.183655 416.133026,220.807709 381.463318,201.061005 
z"/>
<path fill="#FFFFFF" opacity="1.000000" stroke="none" 
	d="
M322.531342,1.000000 
	C322.014709,1.333241 321.037018,1.924675 320.042786,1.953985 
	C316.214203,2.066844 312.379700,1.956241 308.548462,2.007047 
	C284.467163,2.326395 260.382446,2.505471 236.306305,3.056553 
	C220.125443,3.426919 203.949402,4.191896 187.784912,5.041131 
	C172.344559,5.852323 156.864639,6.471802 141.505875,8.134183 
	C121.937431,10.252210 102.258041,12.294111 83.021423,16.276550 
	C61.440361,20.744345 44.217323,33.120411 30.988297,50.909748 
	C19.659487,66.143822 14.652537,83.657158 11.988465,102.082451 
	C10.034032,115.599739 7.698997,129.070465 6.112383,142.629684 
	C4.928844,152.744217 4.545216,162.960663 4.028402,173.143036 
	C3.191156,189.638641 2.536887,206.143524 1.402681,222.822250 
	C1.000000,149.059540 1.000000,75.119072 1.000000,1.000000 
	C108.020828,1.000000 215.041748,1.000000 322.531342,1.000000 
z"/>
<path fill="#FFFFFF" opacity="1.000000" stroke="none" 
	d="
M413.468658,519.000000 
	C413.985260,518.666687 414.962463,518.077271 415.957275,518.045959 
	C419.618958,517.930542 423.287018,518.041748 426.951691,517.993286 
	C451.199585,517.672852 475.450836,517.494568 499.693604,516.942993 
	C515.874451,516.574890 532.050476,515.808105 548.214966,514.958862 
	C563.655334,514.147766 579.135132,513.528198 594.493896,511.865814 
	C614.062378,509.747772 633.741699,507.705811 652.978333,503.723389 
	C674.559387,499.255646 691.782532,486.879822 705.011597,469.090546 
	C716.340393,453.856476 721.347412,436.343109 724.011536,417.917816 
	C725.965942,404.400543 728.301086,390.929871 729.887695,377.370667 
	C731.071228,367.256165 731.454712,357.039703 731.971497,346.857361 
	C732.808716,330.361603 733.463074,313.856567 734.597290,297.177734 
	C735.000000,370.940460 735.000000,444.880951 735.000000,519.000000 
	C627.979187,519.000000 520.958252,519.000000 413.468658,519.000000 
z"/>
<path fill="#FFFFFF" opacity="1.000000" stroke="none" 
	d="
M735.000000,222.531342 
	C734.668152,222.347916 734.065674,221.704437 734.044617,221.042465 
	C733.655090,208.792084 733.686523,196.517181 732.909912,184.293121 
	C731.964905,169.417969 730.486206,154.571640 728.983337,139.738693 
	C727.865845,128.709610 726.544495,117.692360 724.954468,106.721931 
	C722.301147,88.415428 718.457703,70.294952 707.849243,54.752441 
	C693.306274,33.445320 673.417603,19.396152 647.660583,15.119389 
	C631.595947,12.451978 615.361755,10.671119 599.145264,9.092578 
	C584.259338,7.643562 569.303772,6.837671 554.363220,6.043378 
	C538.199463,5.184054 522.019104,4.623707 505.842926,4.014418 
	C494.926544,3.603244 484.006439,3.263079 473.085205,3.015192 
	C453.176422,2.563308 433.265503,2.203549 413.177734,1.402678 
	C520.246948,1.000000 627.493958,1.000000 735.000000,1.000000 
	C735.000000,74.687355 735.000000,148.375015 735.000000,222.531342 
z"/>
<path fill="#FFFFFF" opacity="1.000000" stroke="none" 
	d="
M1.000001,297.468658 
	C1.331842,297.652100 1.934353,298.295563 1.955404,298.957550 
	C2.344954,311.207947 2.313447,323.482849 3.090036,335.706909 
	C4.035049,350.582092 5.513731,365.428406 7.016624,380.261383 
	C8.134109,391.290466 9.455636,402.307709 11.045606,413.278137 
	C13.698824,431.584717 17.542305,449.705170 28.150797,465.247681 
	C42.693848,486.554718 62.582577,500.603973 88.339561,504.880707 
	C104.404190,507.548065 120.638374,509.328918 136.854889,510.907410 
	C151.740768,512.356445 166.696381,513.162231 181.636948,513.956482 
	C197.800766,514.815857 213.981125,515.376282 230.157349,515.985474 
	C241.073730,516.396667 251.993851,516.736816 262.915100,516.984741 
	C282.823792,517.436646 302.734619,517.796448 322.822266,518.597290 
	C215.753021,519.000000 108.506042,519.000000 1.000000,519.000000 
	C1.000000,445.312653 1.000000,371.624969 1.000001,297.468658 
z"/>
<path fill="#FEFEFE" opacity="1.000000" stroke="none" 
	d="
M381.779968,201.246368 
	C416.133026,220.807709 450.169403,240.183655 484.999207,260.011261 
	C420.695618,296.591644 357.122437,332.756500 293.216705,369.110535 
	C293.216705,296.151459 293.216705,223.803757 293.216705,150.911087 
	C322.897522,167.778473 352.180420,184.419739 381.779968,201.246368 
z"/>
</svg>